# xmcd
#
# Track frame offsets:
#	183
#	11415
#	21208
#	31373
#	43878
#	57495
#	69653
#	79348
#	90620
#	103768
#	115060
#	130793
#	140713
#	156408
#	166848
#	181835
#	194623
#	206500
#	217323
#
# Disc length: 3081 seconds
#
# Revision: 6
# Processed by: cddbd v1.5.2PL0 Copyright (c) Steve Scherf et al.
# Submitted via: audiograbber 1.83.01
#
DISCID=190c0713
DTITLE=Various Artist - Country 3
DYEAR=1993
DGENRE=Country
TTITLE0=Happy tracks
TTITLE1=Sittin' on a rock
TTITLE2=Please help me I'm falling
TTITLE3=Wolverton mountain
TTITLE4=Almost persuaded
TTITLE5=The end of the world
TTITLE6=Second hand rose
TTITLE7=The yellow bandana
TTITLE8=It's four in the morning
TTITLE9=When man loves a woman
TTITLE10=I'm a truck
TTITLE11=I can't believe that it's all over
TTITLE12=No charge
TTITLE13=When you say love
TTITLE14=Baby I'm yours
TTITLE15=Tennessee bird walk
TTITLE16=Help me make it through the night
TTITLE17=Rise and shine
TTITLE18=Take time to love her
EXTD=
EXTT0=Kenny Price
EXTT1=Warner Mack
EXTT2=Hank Locklin
EXTT3=Claude King
EXTT4=David Houston
EXTT5=Skeeter Davis
EXTT6=Roy Drusky
EXTT7=Faron Young
EXTT8=Faron Young
EXTT9=Billy Walker
EXTT10=Red Simpson
EXTT11=Skeeter Davis
EXTT12=Melba Montgomery
EXTT13=Bob Luman
EXTT14=Jody Miller
EXTT15=J. Blanchard, M. Morgan
EXTT16=Sammi Smith
EXTT17=Tommy Cash
EXTT18=Nat Stuckey
PLAYORDER=
